<svg xmlns="http://www.w3.org/2000/svg" class="icon" version="1" viewBox="0 0 1024 1024"><defs/><path fill="#C5E3FF" d="M503 947c-94-2-186-35-266-103-2-2-3-3-2-6 19-67 46-130 86-188 25-36 55-69 94-93a182 182 0 0 1 206 7c38 26 67 60 92 98 36 55 60 115 79 178 1 3-1 4-3 6a423 423 0 0 1-286 100z"/><path fill="#3D9FF9" d="M512 980A468 468 0 0 1 330 81a468 468 0 0 1 364 862 465 465 0 0 1-182 36zm0-910a443 443 0 0 0-172 850 443 443 0 0 0 344-816 440 440 0 0 0-172-34z"/><path fill="#3D9FF9" d="M446 518a184 184 0 1 1 245-211c19 87-28 177-114 211a13 13 0 0 0 2 1c48 19 85 51 117 90 46 56 76 121 100 189l9 28c1 3 1 6-3 8l-17 15-10-33c-21-62-48-122-87-175-21-29-45-55-75-75-68-46-143-44-209 4-43 31-75 72-101 118-27 47-47 97-62 149l-3 10-20-17-1-5c24-77 56-150 107-214 33-41 71-74 121-92a10 10 0 0 0 1-1zm66-329a157 157 0 1 0 157 157 157 157 0 0 0-157-157z"/><path fill="#3D9FF9" d="M104 662l-9-30c-1-2 0-5 1-7 44-67 104-113 180-138l7-5-6-7c-40-23-69-56-80-101-12-54 4-101 43-139 37-37 83-53 135-54 8 0 14 5 14 13 0 7-5 13-14 13-30 1-59 7-85 22-34 19-58 46-68 85-10 42 2 78 31 110a140 140 0 0 0 47 34c6 3 9 7 9 14l-1 19c0 11-2 15-13 17a299 299 0 0 0-93 44 313 313 0 0 0-94 102l-4 8zm817-1c-12-18-24-36-37-52-41-49-93-82-154-99-11-3-14-6-14-18v-18c0-8 3-12 10-15 26-12 47-30 62-54 29-49 22-105-17-146-30-31-67-46-109-50h-13c-8-1-13-6-13-13 0-8 6-14 14-13 60 1 112 22 150 71 24 30 35 64 31 102-5 46-29 82-65 109-6 5-13 8-19 12l-5 7c0 1 4 4 6 4 76 25 135 71 180 137 2 3 3 7 2 11l-9 25z"/><path fill="#C5E3FF" d="M512 191a157 157 0 0 1 157 157 157 157 0 1 1-157-157z"/></svg>