<svg xmlns="http://www.w3.org/2000/svg" class="icon" version="1" viewBox="0 0 1024 1024"><defs/><path fill="#3D9FF9" d="M916 828h-91a13 13 0 0 1 0-25h78V268h-78a13 13 0 1 1 0-25h91a13 13 0 0 1 12 12v560a13 13 0 0 1-12 13z"/><path fill="#3D9FF9" d="M916 548h-91a13 13 0 0 1 0-25h91a13 13 0 0 1 0 25z"/><path fill="#C5E3FF" d="M775 232a91 91 0 0 1-91 90H216a91 91 0 0 1-81-51 89 89 0 0 0 15 1h468a90 90 0 0 0 82-130c42 8 75 45 75 90z"/><path fill="#3D9FF9" d="M684 334H216a102 102 0 0 1-55-16 104 104 0 0 1-37-41 13 13 0 0 1 13-18 77 77 0 0 0 13 1h468a78 78 0 0 0 70-112 13 13 0 0 1 14-18 103 103 0 0 1 85 102 103 103 0 0 1-103 102zm-525-49a78 78 0 0 0 57 24h468a78 78 0 0 0 60-128 79 79 0 0 0-25-19 103 103 0 0 1-101 123z"/><path fill="#3D9FF9" d="M618 285H150a103 103 0 1 1 0-206h468a103 103 0 0 1 0 206zM150 104a78 78 0 1 0 0 156h468a78 78 0 0 0 0-156z"/><path fill="#3D9FF9" d="M176 235a53 53 0 1 1 54-53 53 53 0 0 1-54 53zm0-81a28 28 0 1 0 29 28 28 28 0 0 0-29-28zm375 41H423a13 13 0 0 1 0-25h128a13 13 0 0 1 0 25z"/><path fill="#C5E3FF" d="M775 535a91 91 0 0 1-91 90H216a91 91 0 0 1-81-51 89 89 0 0 0 15 2h468a90 90 0 0 0 82-130c42 7 75 44 75 89z"/><path fill="#3D9FF9" d="M684 638H216a102 102 0 0 1-55-16 104 104 0 0 1-37-42 13 13 0 0 1 13-18 77 77 0 0 0 13 1h468a78 78 0 0 0 70-112 13 13 0 0 1 14-18 103 103 0 0 1 85 102 103 103 0 0 1-103 103zm-525-50a78 78 0 0 0 57 25h468a78 78 0 0 0 60-129 79 79 0 0 0-25-19 103 103 0 0 1-101 123z"/><path fill="#3D9FF9" d="M618 588H150a103 103 0 1 1 0-206h468a103 103 0 0 1 0 206zM150 407a78 78 0 1 0 0 156h468a78 78 0 0 0 0-156z"/><path fill="#3D9FF9" d="M176 539a53 53 0 1 1 54-54 53 53 0 0 1-54 54zm0-82a28 28 0 1 0 29 28 28 28 0 0 0-29-28zm375 41H423a13 13 0 0 1 0-25h128a13 13 0 0 1 0 25z"/><path fill="#C5E3FF" d="M775 869a91 91 0 0 1-91 91H216a91 91 0 0 1-81-51 89 89 0 0 0 15 1h468a90 90 0 0 0 82-130c42 8 75 45 75 89z"/><path fill="#3D9FF9" d="M684 972H216a102 102 0 0 1-55-16 104 104 0 0 1-37-42 13 13 0 0 1 13-17 77 77 0 0 0 13 1h468a78 78 0 0 0 70-112 13 13 0 0 1 14-18 103 103 0 0 1 55 174 102 102 0 0 1-73 30zm-525-49a78 78 0 0 0 57 24h468a78 78 0 0 0 60-128 79 79 0 0 0-25-19 103 103 0 0 1-101 123z"/><path fill="#3D9FF9" d="M618 923H150a103 103 0 1 1 0-206h468a103 103 0 0 1 0 206zM150 742a78 78 0 1 0 0 156h468a78 78 0 1 0 0-156z"/><path fill="#3D9FF9" d="M176 873a53 53 0 1 1 54-53 53 53 0 0 1-54 53zm0-82a28 28 0 1 0 29 29 28 28 0 0 0-29-29zm375 41H423a13 13 0 0 1 0-25h128a13 13 0 0 1 0 25z"/></svg>
