<svg xmlns="http://www.w3.org/2000/svg" class="icon" version="1" viewBox="0 0 1049 1024"><defs/><path fill="#191717" d="M525 0a525 525 0 0 0-166 1023c26 5 36-11 36-25l-1-98c-146 32-177-62-177-62-23-61-58-77-58-77-48-32 4-32 4-32 53 4 80 54 80 54 47 80 123 57 153 44 5-34 19-58 33-71-116-12-239-57-239-259 0-57 21-104 54-141-5-13-23-67 5-139 0 0 45-14 145 54a508 508 0 0 1 262 0c100-68 145-54 145-54 28 72 10 126 5 139 34 37 54 84 54 141 0 202-123 246-240 259 19 17 35 48 35 98l-1 144c0 14 10 30 36 25A525 525 0 0 0 525 0z"/><path fill="#191717" d="M199 754c-1 2-5 3-9 1s-6-5-4-8c1-2 5-3 9-1s5 5 4 8zm21 23c-3 3-8 1-11-3-3-3-4-8-1-11 2-2 7-1 10 3 4 4 5 9 2 11zm21 30c-4 3-9 0-12-4s-3-10 0-12c4-3 9 0 12 4 3 5 3 10 0 12zm28 30c-2 3-8 3-13-2-5-4-7-10-3-13 3-3 9-2 14 2 4 3 5 10 2 13zm40 17c-1 4-7 6-13 4-7-2-10-7-9-11s7-6 13-4 9 6 9 11zm42 3c0 4-5 8-11 8s-11-4-11-8 5-8 11-8 11 4 11 8zm40-7c1 4-3 9-9 10-7 0-12-2-13-6 0-5 4-9 10-10s11 2 12 6zm0 0"/></svg>