<svg width="990" height="597" version="1" xmlns="http://www.w3.org/2000/svg"><path d="M772 202l3-1 1-1 1-2 4-5v-2-1l1-2-1-3-1-4h-1v1c1 3 0 7-1 10l-1 3-1 1-1 4h-2c-1 0-1 0 0 0l-1 2zm-10 4v-1h-1v1l1 1v-1zm-3-26v-1 1zm0 3l-1-1v-1h-1l2 2zm-15 34zm-2 4v0zm-1-9v-1h-1v1h1zM721 76zm0 148l-2-1-2-2h-1v2l4 2 1-1zm-6-163zm-5 1v-1h-1l-1-1-1-1v1l2 1-2 2-1 1h1l3-2zm-4 3h-6 1v3l2 1 1 1 1 1-1-1-1-1 1-1 1-1 1-2zm-9-22h1-1zm-4 189l1-1-1-1-1 1-1 1-1 3 1 1v-1l2-3zm-1-38h-1v1h1v-1zm0-138v-1 1h1v1-1h-1zm-16 52v-1l-1 1h1zm-2 147zm-5-129h-1 1zm-1-3v-2l-2-2h-1l2 4h1zm-16 119l1-3-1-2-1-1c-2 0-5 2-4 5v1l3 1 2-1zm-6-129h-1 1zm-9 159h1l-2-6-1-2-1-1v-1l-1-1-1-1v-2l-1-3-1-3v-1l-1-1-4-4-2-2c-1-1-1-1 1-1l1-1c-1-2 0-3 1-3h2l1-1v-2-2l-2-1h-3-1a126 126 0 0 0-5 3l-4 3-1 1-1 2 1 2 2 4 3 5 3 3 3 2v1c1 0 1 0 0 0l-1 3-1 3c-1 1 0 3 1 5l2 1h1c2 2 4 2 5 2h1l5-1zm-25-74zm-15 58l1-2c0-2-1-3-3-4l-5-3c-1-2-2-3-4-3l-3-2v-1l2-3v-1l1-1 1-2h1-1l-5 1-2 1c-2 0-3 1-4 3v-1 1c2 2 2 2 5 1l1 1v1h-1l-3 1-2 1-1 1-2-1-1-2h-1v-1l1-1v-1l-5-2h-2l-2 4-1 1-1 2-1 1v2l-1 3-1 2v3l5 2h5l3-2 7-1 4 1 1 1h1l4 2h5l3-1 1-1zm-36 4v-1h-4v1l1 1h2l1-1zm-5-87l3 5h1l1-1c2-1 2-2 0-4l-3-2v-1l-1 1-1 2zm1-24zm0-11c0 1 0 1 0 0h0zm8 21v1h1l-1-1zm5 67h-1 1zm-3-58v1l1 2 2 2h1l1-1-1-1-2-4-2 1zm10 64h-1 1zm-1-55s1 0 0 0zm2 6l1 1-1 1 1 1h1v-1l-1-1v-1h-1zm3 211h-4l-1 1v7h3l1-1 1-2 2-3v-1l-2-1zm-1-4zm4 37l-1-1h-1l1 2-1 4v2l2 4v-1-2-3-3-2zm-8-126zm2 2zm15 53h-1l1 1v-1zm-20 33zm-1 32l1-1-1-1-1-2v-2c-2-1-2-2-2-3l-1-5h-1l1 7 1 2 2 1 1 2v2zm-3 8h-1 1zm-3-6v-1l-1 1h1zm2-23h-1l1 1v-1zm-4 47v-1 1zm-10 45zm-76-122h1-1zm-2-2v-1 1zm-1-1h0zm76-178h1-1zm-1-3v-1h-1v1h1zm3-19zm-1-5l1 1v-1h-1zm-1 9h1l-1-1-1 2v1h1v-1-1zm-1-3zm-3-11l-2-1v1l1 1 1-1zm-2 8h-1 1zm-2-34v1h1v-1-1l-1 1zm0 40zm-7-49h1-1v0zm-5 2v-1 1zm-4 2v-1h-1v1h1zm-6 56l1 1v-1h-1zm-6 6l1-1-1 1v0zm-2-2v-1l-1-1-1 1-1 2h2l1-1zm-10-23zM723 50v-1 1zm77 303zm1-287l1 1 1-1h-2zm13-14l-1 1v0h1v-1zm0 159v-1h-1l1 1zm3-157v3l1-1-1-2zm1 242v0l2 1v-1h-2zm15-117h0zm34-118h0zm64 22h-1l1 1 1-1h-1zm-67 140l-1 1 1 2h1v-1-1l-1-1zm-33 72l1 1v-1h-1zm4-16c0-1 0 0 0 0zm7 7l-1 1h1v1-1-1zm68-171v1l-2 2-1 5v1h-1l-2-1-1-2-1-3h-1-1l-2 1-3 1-1 2v4l-1 4v4l1 1 2 1-1 2h-1l-2 1-3 2h-2v-1-1-1h-1l-5-1-1 1-1 2v1h-4l-3 1-1 1h-2l-4 1-3 2v1l-1 4v2l-1 5-2 7-2 4-1 3-1 1 1 1h2l2 1 1 3h1v-1-1l1-1v1l1 3h1l1-3 1-1h3l5 3 1 3 1 1v2l1 1v-1l-1-4v-1-1-3l-1-1 1-1 2 1 1 2 3 5v2l2 4 7 11v2h-1l-1 1v5l1 3c2 1 2 3 4 3l1 3h-1l-2-1-1 1v2l-2-2v-1l-1-3-1-3-1-3-1-5-2-5-1-1-1-4-3-3v-1 1a516 516 0 0 0 1 9l2 7v4l-1 1-1 6c0 3 0 5-2 7v1l-3 7-2 4-2 2-3-1-2-1-1 2-1 1-1 1c-1 1-2 3-1 4 0 3 0 4-2 6l-1 2-1 1v2l2 2 2 2 2 2 3 6v6l-2 1h-1l-3 1-1 1h-1l-1-3v-2l-1-4v-2-1l-1-1-2-1h-2l-1-2v-4l-2-2h-1-1c-2 0-4 1-5 3l-2 2-1-1 1-2-1-1 1-2v-1-2l-2-1-1 1-1 2-1 1c-2 1-2 2-2 4l-2 1h-1c-1 0-2 2-1 3l3 2 2 2h2l2-2h3l1 1h2l1 1v1l-1 1-3 1-2 2-1 2-1 2 2 3h1l2 2 2 4 2 2 1 1v2h-1l2 2v1l-2 1v1l1 1 2 1v4l-1 3-1 2-2 3-1 2v4h-1l-2 3-3 3-1 1-2 2h-2l-4 1h-1-1l-3 3-5 2h-1l1 1v1l-2 1-1-2-2-2h-2l-5 2v1l-1 2c-2 1-1 3-1 4v1l1 1 1 1 2 3 5 3 1 2 2 6v6l-1 3-5 3-1 1-5 4h-1v-3l-1-2h-1c-2-1-4-2-4-4l-4-3-1-1c-1 0-2 0-2-2h-2l-2 9v2c0 1 0 2 2 2l1 3 1 2 2 2 4 3 3 3 1 3v2l1 3 1 3v2h-1l-4-2-2-2-1-1-1-1-2-2-1-2v-3l-1-3-5-6c-2-1-2-2-1-4v-4-1-6-1l-1-1-2-7-1-2-2-3v1l-3 1-4 1-1-1v-2l-1-5-2-2-1-2v-1l-1-1c-3-1-4-3-5-5v-2l-1-1-3 1c-2 2-4 2-6 2l-3 1-1 1c0 3-2 4-4 5l-1 1-2 2-1 2-4 3-1 2-1 1-3 2h-1l-1 2a66 66 0 0 0 0 6v4l-1 3 1 1-1 2-2 2-1 2-2 1v1l-3 1-1-2-1-3-2-5-2-2-2-4-1-2-2-4-1-3-1-1-2-6-1-5v-2l-1-5v-1h-1 1l-2 3c-3 2-4 2-6 0l-3-4v-1h1c1 1 1 0 2-1h-1c-2 0-3 0-4-2l-2-1-2-2-1-2-1-1-2-1-4 1h-12l-10-1-2-2-1-2-2-1-3 1-2 1-4-2-2-1-2-1-1-1-2-1-3-4-1-2h-4-1v3l2 4 1 1 2 2 2 3 1 2h1l1-1v-1l1 1v4l1 2h5l4-2 4-5h1v3l2 4 2 1h3l2 1 1 2c2 2 2 2 1 3l-4 5-1 2v3h-2l-1 2-3 2-1 1-2 2-5 1-2 2-1 1-3 2-4 1-2 1-2 1-3 1-4 1-3 1-2 1h-4v-2l-2-6v-1l-1-4-3-3-2-4-2-3-2-1c-2-2-3-3-3-5v-1-3l-1-1c-1-2-1-3-3-3l-1-2-2-3-4-6-1-1-1-1-2 1h-1l-1 1 1 1 4 8 1 1 1 4v1l1 1h1c1 1 3 2 3 4l1 7 1 2 2 1 2 3 1 3c1 3 2 4 4 5l3 2 4 4 2 1v4l3 3h1l1 1 1-1 4-1h1l7-1 5-2h1l1 1v6l-2 4-3 6c-3 5-7 10-11 13l-1 1-5 4-7 8-3 2-2 2-2 4-2 3 1 4v3l1 5 2 3 1 2-1 5v9c-1 2-2 4-5 5l-3 2-2 1-8 7-1 2 2 6v5l-2 3-3 1-3 1-1 2v2l-1 4c0 2-1 3-3 4l-1 2-3 4-3 4-6 5-5 1-1 1-3 1h-9l-1 1-4 1h-1l-4-2-1-1v-5-3l-1-1-2-6-1-3-2-2-2-5-1-5v-2l-1-5-1-4-3-6-3-5-1-2a241 241 0 0 1 1-7l1-5 1-2 2-3c2-1 2-3 2-5l-1-1-1-4v-1-1l-1-5-2-4v-2l-3-3-1-1c-4-3-4-4-6-8v-1l2-4v-3l1-2v-2l-1-4-1-1-2-1-5 1h-1c-2 0-3 0-3-2l-1-2-4-3h-1l-4 1-4 1-3 1-2 1-2 1h-3l-5-1h-3l-4 1-3 1-1 1-3-2-6-5-3-1-3-3-2-5-1-1-2-2-1-1-2-2-1-2h-2l-2-2v-3-2l-2-2 1-1 2-6v-1l1-6v-3l-1-2-1-3v-2l4-6v-1l4-5 2-3 2-2 1-1 2-1 2-2 2-1 1-1 2-2v-2-2l1-3 1-1 2-4 4-2c1-1 3-2 3-4l1-2h3l1 1h6c1 1 2 0 3-1l3-1 4-2 3-1h3l5-1h10l3-1 3 1h1l1 1-1 2v1l1 1v3l-2 1 1 2 3 2 4 1 6 1 2 2v1l2 1 5 2 2 1 1 1h3v-1l1-2-1-1 2-4 7-1 1 1 3 1 4 2h3l8 2h2l5-2 2 1h5l1-1 2-3 2-4v-3l1-3v-4l-3-1-2 1-3 2-3-1-3-1h-2l-3 2-1-1h-1l-3-1h-1l-2-2-1-2v-1h-1l-1-1-1-1h1l2-1v-1h-1-1l-1-1 1-4-2-2h-4v1l-1 1c0 1-1 2-3 1v-1h-1v1l3 4 1 1 2 3-3 1-1 3v1l-3-1h-1c0-2-1-2-2-3v-1-1c0-1-2-1-2-3l-1-1-2-2-1-4v-2-1l-2-3-3-1-2-1-3-2-3-3-1-1-3-1-1-1v-1l-1-1-1 1-1 1v2l1 2 1 1 3 3 2 2c0 1 1 2 3 2h1v1l1 1 6 4v2l-2-2-2 1v1l1 1v3l-2 3-2 1-1 1v2l-1 1-5-2-2-2h-1l1-1h1l7-1 2-2v-1l-1-3h-1l-2-2-5-3-3-2-5-5-1-2-3-2h-3l-1 1-4 3h-2l-5-1-2 1v3c0 3-2 4-3 4-2 0-3 2-4 3l-1 1c-1 1-2 3 0 5l-1 1-1 3-2 1-2 2-1 1h-4l-4 1-1 1-3-1-1-2-2-1h-4l-1-1-1-5v-1l1-2 1-8v-1l-1-4v-1h1l1-1h14l4 1 2-1v-3l1-6-1-2-2-2c-1-1-1-2-3-2l-2-1c-1 0-2-1-2-3h1l3-1h4l1-1-1-2 1-1 1 1h3l2-2h1l1-1 1-2v-1l2-1c3-2 3-2 4-5l2-2 3-2 2-1h3l2-2-1-5v-1l-1-1v-1l1-4v-1l4-2h2l-1 2 1 3h1v1l-2 2 2 3h1s1 0 0 0v-3l3-2v1l-1 5h-3l-3-1v1l1 1 1 1 2 1 3-1 2-1h1v1l2 2h1l1-1 5-3 4-1 1 1 1 1 3-1 1-1 1-1 1-1-1-3v-3l1-2 2-2h2l1 2h1l1-1v-3-1l-2-1h-1l-2 2h-1l1-3h1l1-1 3-3 3-1h1l3 1 3-1 2-2h1v-1l-3-1h-3l-7 2-2 1-2-1-2-1h-1v-1 1l-1-1-1-2v-1l-1-6v-2-2-1l2-1 1-2 4-5v-1l1-1v-2l-5-1c-2 0-2 1-3 2l-1 4v2l-2 3-2 2-4 5-1 1v6l1 1 4 4v2l-1 2-2 2-2 2v6h1v1c0 1 0 3-2 2 0 1-1 2-2 1l-1 1-2 1-1 1c-2 0-2 1-3-2h-1v-1-1-1l-2-3-1-4-1-2v-2l-1-1h-1l-3 2-1 2-4 2h-1l-4-3-1-1 1-1v-1l-1-1v-1l1-1v-1l-1-1-1-3v-4-2l1-1h1c1 0 2 0 1-1v-1l3-1 3-2v-2h3v-1l3-4 1-1v-1h1l1-1v-3-2l1-1 1-1v-2l2-2 1-1v-1l1-1v-1l1-1v-1h1l1-1h1-1l-1-1-3 1h-1v-2-1l3-2v2h3l1-1h-1v-2l1-1h1s0-1 0 0l2-2v-1-1l1 1v1h2l1-1v-1l4-2v1-1c-1-2-1-2 1-2v1h1l2-2 3-2 1 1 1 1 1 1h1v-1l1-2h1l1 1v2h1v-1h1l5 2 1 1-2 1h-2v2h3l2-1h2l1 1v1l1 1h3c3 0 4 0 7 2l3 2 4 2h2l1 2c2 0 2 2 3 3v1l-2 5h-1l-6 1-9-2-3-1v-1h-1 1v1l2 2 2 1c2 1 2 2 2 3v3l1 3 1 1 2 1 4 1 1-1v-1h-1l-3-2v-1-2h2l6 3 1-1v-1-1c-2-2-1-2 0-4l1-2 2-1 2-1 3 1 1-1v-2l-1-2-1-1v-2c0-2 0-4-2-5v-1h3c1 0 3 0 3 2l2 1v2l-2 1v2l1 1h4l1-1v-2l1-1 4-4 2-2h2l2-1v-1l2-1 1 3v1h1l2-2 3-1 2-1 3-1 1 1 1 1c0 1 0 0 0 0l2-2 1-1-3-3-1-1-4-2-1-2 1-1h1l2 2 6 2 1-1 6 1 2 2 3 1 2 1 2 1 2 1h1v-2-1l-4-2h-2l-2-3v-1-3l-2-2v-2c-1-1 0-2 1-3v-3-6-2h1l1-1 6 1 1 1 1 8 1 2c2 1 3 2 3 4l3 8 2 3 1 1 1 1 1 3v1l-2 7c-1 1-1 2-3 1h-1v-1 2h1a125 125 0 0 0 5 0l2-3v-2l1-4v-2l-2-2 1-3 3-2v-1l-3 1-3 1-1-1-2-5v-3l-2-2-1-1-2-2v-3l1-2v-1-2l-1-3h1l1 1 1 3 2 4v1l2 1h5v-1h-4l-3-3v-1l2-1 1 1h2v-2h-1l-1-1h-1-1l1-2 1-1 4 1 3 2 2 1 3 1h2c1-1 2 0 1 1v1l1 4v0a181 181 0 0 0 2-1l-2-5-1-1-2-1-3-2h-3l-1-1v-2l-1-2-2-2c0-1 0-2 2-3h1l4-2 4-2h2v1h1v-1l-3-2-3-2-1-1v-2l1-2 2-2 1-1 2-3 2-1 3-2v-1-2l2-1h2l1-1 1-1 1 1v2a45 45 0 0 0 3-2l1-2v-1l1-1 2-1 1-1-1-2c-2 0-2-2-2-4l1-6 1-1h1l4 1c1 0 2 1 1 2l1 1h4l1 1v4l2 1 1-2-1-1 1-1 4-2h3l2 1 3 2h2l3 3 2 4v3l-1 4-1 3v2l-1 1v3l-1 1-1 2-1 2 1 1 4-2 1-2 1-1v-1 1l-2-1v-1-1l1-1h3l1 1c1 1 2 1 3-1l2 1 3-1 2-1 6-1 1 1c0 2 2 3 4 1h1l3 1 4-2v-1l-1-2v-2l2-1h7l5 1 3 3v2h1l1 1 2 2-1 1h-2 1l1 1h1l1 1 6 4h3l-2-4v-4h1l4 2 2-2 2-1h2l2-1 2-1h3v-1l-2-2v-2h-2l-1-1 1-2h1l1-1-1-1h-2v-1h1l1-1h13c2 1 2 0 3-1h2l2-1 4 1h1v3c-1 0-1 0 0 0l2 1h1l1 1h1l2-1 2 1 2 2 1 1 3-2 6-3 1-1c3-1 5 0 7 1l1 1c2 1 3 2 4 5l1 1c2 0 4 0 6-2l5-2h3l4-1 1-1v-3l1-1 2 1v3l1 1h1v1c2 0 3 0 4 2h2l1-1v-1l-2-3-3-1-1-1c1-1 0-2-1-4h3l4-1 3-1 5-1h1l9 1 2 1 2 1h8l3 1h3c2-1 3 0 4 2l4 4h1v-2l-2-2v-1l1-1 2-1 2-1 2 1 4 1h1c0 2 0 3 2 5v1l-2 2v2l1 1 2 3v2c2 0 2 1 2 3l-1 1h-8l-1-1-1-1-2 1-1 1c-1 2-1 2-3 1l-2-2h-1v2l2 2 2 1 1 2v6l-2 3h-2v1c1 1 2 2 3 1l2 1v1h1l1 2 1 1 4 2 1 1v1c2 2 2 3 2 5h-1-3l-2 1-3 4-2 3-1 6-1 3-1 3 1 2-1 1h-1l-1-1-1-1-2-1-3 2-2 2v2h-1l-1-1h-1l-1 1-1 1c-2 0-2 2-2 3v1l1 6 1 4 1 1 1 1-1-1h1l1-1 2 1v2c-1 1 0 2 1 3v1l2 1 1 2c1 1 0 2-1 2h-1c-1 3 0 5 2 6l1 2v2l-2 1-1 1v5l1 2v1c-3 1-3 2-2 4v6l-1 2-1 1c-1-1-2-1-2-3l-1-3-2-2-2-3-2-3-7-13-1-4v-3l1-2-1-3 1-1v-1l1-1 1-4v-6-1l1-6 1-2v-1l1-2-1-3v-1l-1-4v-3l-1-1h-2l-1 1c1 2 1 4 3 5zm-85 368l1-1v-1-1l-1-4 1-2 1-3v-2-1l1-1 1 1 1-2 5-2 3-1h1l6-2 3-1 4-2 1-1c1-2 2-3 1-5l1-1 2-2 1 1 1 1h1l-1-2 1-1 1 1 1-1v-1l1-2 1-1 2-2 2-1 2-1 2 1 2 2h1l2 1 1-1v-2l3-4 3-2h1l3-1v-1l-1-1v-1h1l3 1 6 2h3l2 1-1 3-1 1h-1l-1 4v2l2 1 1 1 4 2 2 2h1l1 1c1 1 2 2 3 1l2-1 1-3a103 103 0 0 0 1-6l1-5 1-4 1-3h2l1 5 1 4v1l1 1h2l2 3v3l1 3 1 4v3l1 1 5 4 1 1v2l1 4h1l2 1 1 2c-1 2 1 3 1 4l3 3v1h2v1l-1 5v2 3a8 8 0 0 1 0 5l-3 6-1 4-3 4-1 1-4 5-2 4-2 3-2 4-1 5-3 3h-2l-4 1-5 3h-1l-2-3v-1-1l-5 4-1-1-1-1-3-1-4-3-1-2v-2-6h-2v-1-3-1 1h-1l-2 2h-1v-1l2-3 2-3v-2l-2 2-2 1-3 4h-1v-1h-1v-1-3l-1-2-1-2-1-2-3-1-2-1-2-1a582 582 0 0 1-9 1l-6 1-3 1-1 1-5 3-2 1h-10l-1 1c-1 1-4 1-5 3h-4l-3-2-2-1v-3l3-4v-3-7l-1-5-1-4v-2l-1-2 1-1zm-38-118h0zm-248-96zM326 394zm-81-289h-1 1zm12 29l1-1h3l1 1-2 1 1 1c1 2 3 2 3 4l1 1 1 3 2 2v1l-1 2h-1l-2-1-1-1-2-2-4 4h-2l-1-1v-1l-1-1-1-2h1l1-1 3-7v-2zm21 456v0zm-4-481zm24 127zm-14 359zM80 135v1-1zm290 277l2 4-1 6-2 3-3 3-2 3v1l-4 4v11l-2 5v3l-1 3-2 4v1l-1 2-2 1-3 1h-2l-3 1c0-1 0 0 0 0l-2 2-2 1-4 2-2 2c-2 2-2 4-2 6v1c1 2 0 3-1 5l-3 7-1 1-1-1v-1l-1 1-1 2-1 1v2l-1 3-2 3-1 3-5 2h-2-1l-5-1h-1v-1 1h1l2 2 1 2v2h1l1 2-1 1-1 3-2 2-2 1c-3 1-5 2-8 1l-1 1v6l-2 2h-3l-2-1-1 1 1 3 2 1 1-1 1 1v2l-1 1h-1v-1h-1v1h1l-1 1-1 3v5h-1l-2 1-2 1 1 4 2 1 1 1c2 0 2 1 2 2v3l-2 3-1 2-2 3-1 1v3l1 3 1 2v1h-1l-1 1-3 3v1h1c0 1 0 0 0 0l1-3 1-1h1c2 0 3 1 3 2l1 2 2 2 1 1 4 2h2v1l-3 1h-1-1l-1 1-2 1v1h-2-1-1v-2l-1-1-1 2-2-1-1-1-1-1-1-1-1-1v-1 1h-2l-2-1-4-3v-1h1l3 1v1h0v-1l-3-2v-1l-2-2h-1l-1-1 1-1 1 1 1-1v-2l-1-1v-1h-1 1l-1 3h-1-1v-4-2l-1-1-1-1v-1l-1-1v-1-1l-1-1 1-2h2v-3l-1-1-2-1-1 1v-1h-1l2-3 2-2 1 1v0l1-4-1-1 1-5v-5-1h-1-2l1 2v2l-1 2h-1l-1-4v-1l2-1-1-1v-3l-1-2 1-2v-4l-2-4v-2l1-2a1165 1165 0 0 1 3-14v-2l-1-5v-3-3-3l1-3v-3l-1-11 1-2v-7l-1-1v-4-2l-1-1-4-4-4-3h-2l-7-6-1-3v-1l-4-5-3-6-2-4-1-2-1-2-2-2-3-1v-2-1l-1-2 2-3 2-1 1-2-1-1v1l-2-2v-3-1l2-5v-1l2-1 2-2 2-3c2 0 2-2 3-3v-3-5l-1-1-1-3-1-2c0-2-1-2-2-3h-1l-2 3v1l-1 1h-2l-2-2-4-1-1 1-2-2c0-2-1-2-2-3h-3c-1-1-2-1-1-3l-1-2-2-3-2-2-1-1-5-1-5-1-3-2-6-5-3-1c-4 2-4 2-8 1l-4-2-3-1-5-3-2-1h-1l-3-2-3-2-2-2v-3-2-1c-1-4-2-6-6-10v-2l-2-2-2-1v-2-1l-2-2-2-3v-1l-4-6-1-5-2-2-2-1v1 6l3 5 2 5 2 3 1 3v1l2 4 2 3-1 1h-1l-5-6-1-2v-2l-1-1-3-3-3-3v-1h2v-3l-3-3-1-2-2-7-1-4c0-2 0-3-2-4l-6-3v-1l-1-2a127 127 0 0 1-2-5v-5-1l-1-1-2-4v-1-1-6l1-6v-1c0-2 0-4 2-5l2-6 2-6 1-5v-5l2-3h-1l-5-7-2-2v-1-2s0-1 0 0h2l1 1 3 1 2 3 1 2 1 1 1 4-2 1h-1l3 1h1l1-1v-2l-1-2-1-1h-1v-1l-1-1v-2-1l-2-1-1-1-2-1-1-3v-2-1l1-1-1-1-1-2-1-1 1-2 1-1v-1l-3 1-1-1v-1l1-2c-1 0-1 0 0 0l1-1 1-3-2-1v-2c0 1 0 1 0 0l-1-2h-1 1l-1 4h-1-1l-1-3v-1l1-1-1-2 1-1v-1 1h-1l-1-1 1-3v-1h1v-1l2 1h2v0h-1v-2l1-2v-1h-1l-2 4h-1v1h-1v1l-2 2v-4-2h-1 1l-1-2 1-2 1-1h2l-1-2-1-1v-1 2l-1 1-2-1-1-3v-1l-1-2-1-1v-2-1h-1c-1 1-2 0-3-1v-1 1-1h-1 1-1l-3-1h-2l-1-1-1-1-1-2-3-3v-1h-2l-1-1h-1l-1 2 1 1 1 1h-2l-2 2h-1l-3 1h-2l-3 2h-2-1v-1l2-1v-1-2l4-4v-1h5v-2l-1-1c-2 1-5 2-6 4l-1 1-2 1-2 2-1 1c-1-1-2 0-3 1v4l-1 1-2 1-3 2-6 3-2 2-3 1v1h-1l-3 1c0 2-2 2-3 2l-2 1h-1l-3 1-1 1-1-1v-1 1l-4 2-3 1-1 1h-4v-1c1-1 1-2 3-2h1l5-2 2-2h3l2-1 2-2 4-2 3-1 6-7 2-2v-1h-4l-1 1v-1l-3-3v1h-3v-1-1-1l1-2 1-2v-2-1c1 0 0 0 0 0v1l-3 1-1-1-1-1-1-2 1-4v-2-1c-1-2 0-3 1-4l6-5v-1l4-3 2 1 1 1 3-3v-1l1 1 1 1h1l3-2 2-3v-2l1-1v-1h-1l-4 2h-2c-1-1-2-2-4-1-2 0-3-1-3-2l-1-2 2-3v-1h1l-2-3v-1l5-2 2-1h2l2-1h3l1 2-1 1v1l2 1h5v-1l1-1 2 1h1v-1h-4 1-1v1l-1-1v-3l1-1-2-1v-2-7l-1-2 1-3 2-2c0-1 1-2 2-1 3 2 6 0 8-1l1-1 7-4 3-1h3l1-1 1-1 3-1 2 1 4-1 2-1h1l2 3h-2l-1 1h-1 2v-1h2v1l1 1 1 1h2v3l1 3h3l2 1 2 2 1 1 4 3 3 1h1l2 1 4 4 3 2v2l1 3 2 2 1 1 1-1 2-2h2l2-1h1v2l3-1 2-1 6-1h2l1 1-1 1h-1v1l1-1h1l1 1 2-2 1-1 1-2h1v7 3h1l3-3h1l-1 4v1h1l2-1 3-1 2 3 2 3 4 3 4 1 2 2 1 2-2 2h-1l-2 1v1c3 3 7 3 10 3l2-1 1 1 1 2 1 2v3h1l1-1v-4l2-2h1l3-1 2-1v-1l-2 1h-3v1h-1l-1-2 2-1 5-1 2 1v2l1 3 1 1 2 2 2 2h8v-1h1l1-2h1l2-1-3-3v-1l1-1 4-2 1-2 1 1c1 2 2 3 4 2l-1 2-1 1 1 3h-1l-2 1h-2-1c0 1 0 2 2 2v1l-2 3v1l1 2v-1l1-2 2-2 3-2 2-1v-2h-1v-1l1-2h1l1-1-3-1v-1l-1-1-1-2 1-3 1-2c0-2 1-4 3-5h2v-2l2-1 1-1 1-5 1-2 2-4 1-2 2-2h6l4 2 1 2-1 2a417 417 0 0 1-9 6l-1-1h-1v1l-1 2-3 2v1l1 4v1 7l-1 2h-1l-2 2v1h2l2 2-1 1v1l-1 4h1l1-2 2-2h1l1 4-1 2-1 3v3h2l1-2v-1c0-1 0-2 1-1l1 1h-1 1l1-1 1-2 2-2 1-1v-1l1-3 2-1 1-1h-1 1l2 1 1 1 1 2 2 2v2l-1 1c0 1 0 2-2 2h-1v2 5l-2 2-1 1-4 2h-5c-1-2-2-2-3-1v3h-1l-1 1-2 2-1 1v1a449 449 0 0 1-7 6l-2-1h-1c-1 2-2 2-4 2v2l-2 2h-2l-3 3-5 5-1 1-5 8v4h1l1 1h1v6l-1 3 3-1h2l4 2 3 4 3 2 3 3 2 1 6 1v1l-1 2v1l-2 6v1l3 4 1 2v1h1l2-1h1l1-2v-1-3-3-5l1-1 3-1 5-3 2-2 1-5-1-4-1-1-1-1v-3l3-3 1-1 1-2v-1-3l1-3v-2-2c1-2 2-2 4-2l2 1 4 1h1c2-1 2 0 3 1l1 1 1 3 1 1v1h1c2 0 2 2 3 2l1 1-2 3v7l2 1 1 1 1 1 2-1 1-1 4-4 2-4h1l1 1 1 6v2l1 2v1l1 2 1 3v2l-2 1v1l2 2 2 3 4 2 2 1v2h-2 1l1 1 1 1v1l3 1v1l-1 2v4l-5 2h-2l-2 2a7 7 0 0 1-4 2h-1l-4 1-11-1h-2l-2 1-1 1-2 2-4 2-1 2-1 1h-1l-1 1h-1v1l1-1 2-1 1-1 10-4 3 1 1 1v2l-3 1-1 1h2v4c0 2 1 3 2 3l1 1h1l1 1 1-1h2l3-4 1 1 1 3v1h-1-1c0 1-2 0-2 2h-2l-5 2-3 1-4 3-2-2 1-1 2-3h1l1-1h-1l-3 1-1 1-1 1-5 1h-2l-2 1-3 4-1 2 1 2v1l-1 1-6 1h-1 2v1l-1 1h-3c-1 0-2 0-2 2l-2 3-1 1-1 1v2l-2 3h-1v-2h-1v10l-1 1-1 1-1 1-4 2-2 1-1 1-1 2-2 1h-1l-4 4-1 1a19 19 0 0 0 1 10v2l1 3v1l-1 5h-3l-1-2-3-6v-2-1-2l-2-3h-2-3l-5-2h-5-1l-2 2v2l-2 1c-2 0-3 0-4-2h-2-5l-3 1-5 2-3 3-1 6-1 3v1a48 48 0 0 0-1 10l1 4v1l2 4c1 1 1 2 3 2l2 1 3 1 3-1h2l3-1 2-5 1-2 2-1 4-1h4l1 1v1l-1 2-2 3v3l-1 1-1 1v2l-2 4v1h5l4-1 3 1 3 1 2 1v4l-1 4-1 1v5l2 3 4 3 3-1h2l4-1 3 2 2 1 1 1h-1 1v-2l2-1 1-2 2-3 2-1 4-1 3-2 2-1h1v2l-1 1v1l1 1 2-1 1-2 1-1 1 1 2 1h1l2 2 1 1h11v-1l1-1 2 1h3v1l-1 1 1 1 2 1 2 2 1 1h1l2 1 3 2 1 2v1l4 2h5l4 1h1l7 5 1 2 2 4 2 2v2l-1 2-3 2 2 1 3-1v-1l3 1 1 2-1 1h1l2-1 4 1 5 1 1 1v2l1 1 2-1h1l8 1 3 1c2 1 4 1 5 3l3 2 3 1 1 1 1 1zM122 207zm225-79zm76-3l-8 6-6 2-4 1-2 1h-1-1l-3 1c-1 1-3 1-3 3-1 1-3 2-3 4l-3 2h-1l-5 2-1 1h-5l-2 2-1 1-1 1h1l-1 1v1l-1 1c1 1 0 3-1 4-1 0-2 1-2 3l-2 1h-1 1v2l-1 3-2 3-2 4-1 1-3-1c0 1 0 0 0 0l-1-1-1-3h-2-1-2l-2-2-2-1v-1l1-2-2-3v-1-1l-1-1-1-4 1-2 2-2-3 1-1-1v-6-1l-1-2v-2l2-2h-1l-1-2 1-1 1-2 1-2v-1h2v-2h2l2-2 1-1 1-1v-1l1-1 1-1-1-1-5-2 1 2 1 1-1 2h-4l-2-3v-2l1-1 1-1v-1l1-2 2 1h3l1 2h1l-2-2v-1-1h-1v-1l1-2h1l-1-1h-2l-1 1h-3v-2l1-2 1-1h-1l1-2v-2h1v-2-1-2-2l-1-2h1v-3-1l-1-1c-1 0-1 0 0 0v-2-1l-1-3 1-2v-1l-1-1-4-2-4-3-5 1h-1l-1-1h-1l-2 1-3-4v-1l2-1-3-3 1-3h9l1-1h-1v-1h-2l-2 1-2-1-1-2v-1 1l-2-4v-2c0-1 1-2 3-2l5-1 2-1 2-1 5 1 1-1 3-2v-1l1-2v-2 1l-2-1c-1-1-2-1-1-2l3-4 4-2 3-2 2 1h2v-1l2-2v-2-1l1-1h2l1 1h1v-2l1-1h5l4-1 1-1 2 1-1 3v2 2h-1l-1 1v0l1-1h1v-1l1-1v-2l1-2 1 1v6h3v-2l1-5 2-1 1 2 2 3 1 2v2l1 1 1 1 1-1-1-5-1-4v-1l1-1 2 1h1l1-1 1-1v-3l1-1h4l3 1v-1-1h1l2 1v-1l3-3h4l3 1 8 2 4 3c-2 1-3 2-4 1h-5l-5 1h-4l-1 1h2l2-1h4l3-1 2 1h8c1 2 0 3-1 3l-1 1h1c2-1 4 0 5 1l3 2v2l-5 2-4 1-5-1-7 1-4 1-1 1v1l3-1h1c4-2 5-2 9-1h2l1 2-1 1-2 1h-1 5l2-1v-2h1c3 0 4 0 3 3l-1 1c0 2-1 3-2 3l-3 2-1 1v1l-1 1a148 148 0 0 1 1-2l4-1 5-4h1l1 1 2-1v-1-1h4c2 0 4 0 6 2v1c2 2 2 2 0 4l-1 1h-3v2l-1 1h-1l-2 1h-2-1 2l1 1 1 1-3 2v1l-1 1-1 2c-3 3-4 6-4 9l-1 4c0 1-1 2-2 1v1l1 1 1 1-1 2h-1v1h3l1 2-1 3-1 4v1l-1-3c1-2-1-2-1-3h-1-1l-2 2h1v1l-1-1v2h1l2 1v2l1 2-1 3v1h-2v1l1 1 1 1c1 1 0 3-1 3h-1c-1 2-2 1-4 1 0-1 0-1 0 0l3 1v3l-1 1-3 1h-2l-1-1-1-1h-1s-1 0 0 0l2 1v1l3 2v1l-1 2v1l-1 1-2-2c-1 0-2-1-2-3v-1h-1v3l1 1 1 1c2 1 3 2 3 4l1 1v6l-1 2h-2l-2-2-2-4h-1v3l-1 2h-2v1h4l5 1v1zm-76-21zm84-22zM302 38h1-1zm4-11zm0 1v-1l2-2h2c3 1 4 3 5 5 0 1 0 0 0 0v-3l1-1 3 1h3c2-2 5-2 7-2v1h1v-1h-1-2v-1-1h-1l-4 3-5-1v-2l-3 1-4-2v-1l-2-1-2-2 1-2h1l-1-2 1-1v-1-1-1h0v1l-1-1V8l4-2 2 1h1l1-1h1l1 1h1l1 1h2-1l-1-3h1l2-2h2l1 3h2l1-1V3l2-1h1l2-1 1 2V2l1-2h2l2 2h1v2l1-3 1-1h1l4 1v1l1 1 3-1 3 1 1 1 2 1 2 1h1v2l-1 1h-1s0 1 0 0h2l2-1 2 1 1 1v2l1 1 1 2-1 2-1 2-6 3h-5l-1 1 1 1 1 1v1l-5 3-6 2-2 1-2 1-4 4c-2 2-3 2-4 1h-1v-1l-1 1-1 1h-4l-1 1h2l1 2-2 1-1-1h-1 1v4l-1 1-1 2-3 1-1-1 1 1v2l-4-1-1 1v1l-2 2-3 2h-1v2h1l1 3h-1c-1 1-1 2-3 2h-1l-3 1-1-1-1-2h-1l-4-1h-2 1-1l-2 1h-1l-4-3-4-2v-2h2l1-1h1c1-1 3-2 6-1h1l-1-5v-1h3l1 1 1 2 1-1v-2l-1-1h-1l-1-1 1-3c2 0 2-1 3-3h2l1-1h3v1h1l1 1 1 1v-1h-1a102 102 0 0 1-1-1 195 195 0 0 0-1-1v-2h1v-3-2-3zm-31 81h-1l-2-1-2-1-2-1-1-1h-1l-2-1-1-2v-2c0-1 1-2 2-1l2 1v-1-1l-3-1c-1 0-2-1-1-2 1-2 1-4 3-5v-1a19 19 0 0 1 2-2l3-4 3-3h8l1 1-1 1-5 4-1 1-1 1v3l-1 2c-1 1 0 3 1 4h1v-1l-1-2 1-2h1v-1c0-2 0-3 2-5l1-1c1-1 2-2 3-1l5-2h1l2 2v2l-2 5v2h5l3-1 4 2v3l1 1v1l-1 1v1h2l2 1h2l1 2v2l1 1 1 1c2 0 3 2 3 3l1 3v3 3h-1-2l-1 3v1l2 2 2 1 2 1 1 2v1l1 2h2v1l1 1 2 1v1l-2 2-4 3h-1l-1 1v3h-1l-2-2h-1v-2l-1-3-2-2h-1v1l-2 1v1l1 3v1l2 2 1 2 1 4v3l-2 1v4l-1-1-1-2-1-1-3-2c0-1-1-2-3-2l1 2 4 5v2l-1 1-2-1-2-1-4-3-2-1-2-3-1-1v-2l-2-3-1-1-4-1h-1l-1 1c-2 0-3 0-5-2v-2l1-1 2-2h1l2 1h3l4-1c-1-3 0-3 2-5l2-2 2-1 1-2v-3c1-1 1-2-1-3 0-1-1-2-2-1h-1v-2h1v-1h-4l1-1 1-1v-1l-2-3v-1-2-1l-2-1v1l-2 2-1 1v-1h-1l-1-1h-1 1l1 1 1 1h-1-1l-2-1-1-1-4-1zm-65-42zm0 0l2-1 1 1v2l-1 2v1h1l1-1h2l2 2v2h-2v1c-1 0 0 0 0 0h4l1-3h1v6l-1 4 1 1v-1h1l1-5 2-4 1-2 2-1 1 1 1 1 1 1-1-3 1-2 2-1 2 1c1 0 2 1 2 3l-1 1-4 3-1 1-2 6v1l-2 5v1l1 3 1 2 1 2 1 1v2l-2 2-2-1h-1v1l-1-1v1h-1 2v3l-1 1h-4l-4-1-1-2-1-1v-1h-1l-1 1-3 1h-3l-1 1h-10v-1l-1-2 1-1v-2-1h-3l-2-4v-3l2-1h5l2 1 5 1h1l-4-4h-1l-6-1-2-2v-2-1l2-1h4v-1h-3l-1-1-1-2 2-2 1-1 1-1 2-1 5-3a783 783 0 0 1 4-1zm732 358l2 1 1 1v2h-1c0 1 0 0 0 0l-6-1-3-1-3-5-2-1-2-1h-2l-3 2v1l-1 2h-1l-5-1-2-1h-1c0-2-2-2-3-2l-3 1-1-1 3-3-1-2-1-1c0-2-1-3-3-4h-2l-3-1-2-1-3-2h-1l-1 1h-1l-2-4 4-1v-1l-2 1c-2 0-3-1-3-2l-2-1-1-1v-1l4-2h2l2 1 2 1 1 2-1 2 1 1 2 2h1l5-4c1-2 3-1 4-1l6 2 5 2 3 1 8 4 1 2 2 2 3 1h1v2l-1 1v1l1 2 1 1 2 2 1 1 1 1zm-125-31v-3l1-1 2-1 2 1h1l1-2c1-1 1-2 3-2l3-2 1-2c1-2 2-3 4-3l2-2 1-1 1-2 2-1h1l1 1c0 2 1 2 2 2l3 2v1h-1l-1 1-1 2-1 1v5l1 2 2 2v1h-2l-1 1-1 2-2 4-1 3-1 1v3l-1 1h-4l-1-1-3-1h-5l-1-1h-2l-2-2v-3h-1l-1-2-1-4zm-187 39l2 6v5c-2 1-1 2-2 3l-1 4-1 2-3 10-3 7-1 3-3 2h-2l-2 1-4-3-1-1v-3-2c-1-2 0-4 1-5l2-4 1-4-1-1v-5l2-2 3-2 3-1 3-2 2-2 1-2 1-1 1-1 1-2h1zM599 97v-2l-1-2a112 112 0 0 1 2-4v-3l-1-2v-1h2l1-2h1v-2-2l1-1 2-1c1-2 3-3 5-3l4-2 1-2 3-4 3 1h1l1 1v2l-1 3-2 1-4 4-3 3-3 4-2 3-1 2a155 155 0 0 1-1 8l-1 2v8l5 6 2 1v3h-1-2-3l-2-1-2-2v-1l-2-1h-2-1l-1-2v-2l1-1v-2-1l-1-2 2-4zm276 189l-2-1-2-4 1-1h-2l-1-2 1-2 2-1v-2-1l4-4 2-1 4-1h3l1-4v-2-1l1-1 1 1v1h1c1 0 3-1 3-3v-1c2-3 2-5 2-8l-1-1v-3c-1-2 0-3 1-5h2l3 6 1 5v3l-1 2 1 6 1 3c0 2 0 3-2 4h-1v-1-1l-1 1-1 2h-1l-2 1h-2l-1 1-2 4h-1l-2-1-1-2v-1-1l-1 1v1l1 1-1 3h-2l-1 2h-2v-1l-1-1 1-2h1l2-2-3 1h-1l-2 1h-1v1c2 0 2 2 3 3l-1 6-1 2zM288 42c-2-1-2-2-2-4l1-4c0-1 1-2 3-1l1-1v-1h-1l-2-1-1-2 3-6h1l1 1h0v-2l-1-2 1-1 2-1h2l-1-2 1-1 2-1h2v-1h-1l-1-1 1-1h3l1 4v6l2 1 2 2-1 2v2l-2 2v1l1 1 1 3-2 2-2 2-1-1-2 1v1l-2 1-3 2-1 1h-4l-1-1zm11-3zm509 366l-1 4v5h-4l-1-1-3-2-4-4-3-3-1-2-1-3-3-4-1-2-1-2-1-1-3-4-1-1-2-2-3-3-1-2v-1h1l5 1 2 1 5 5 2 1 1 2 3 1 2 2h1l2 1 1 1 2 3v1l-1 2h1l1 1 1 1 1 2h1l1-1 1-1 1 1 2 3-1 1h-1l-1-1v-1 1l1 1zm-1 9zM184 74l-1-3-1-1 1-1 6-5 1-2 4-3 1-2v-2l1-1 2-1h3l4 2 1 1 3 1 2 1 1 2v6l-2 1h-2l-2 1h-1l-4 1h-2l-1 2-2 1-2 2-2 1-1 1-1 1-2-1-4 1h-1l1-3zm276 119v-1h1l2-4h1l3-1 1 1v1l-2 1v1h4l1 2-2 3v2c2 1 3 2 3 4l3 3 1 2 2 3v1h2c1 1 2 2 1 4l-1 2v1h1v1c-1 2-2 2-4 2l-4 1h-4-1c-1 2-2 2-3 2h-2-1l2-3 3-2h0l-4-2v-1h1l1-1v-2l-1-3h1c2 0 3 0 3-2v-1l-1-1-1-2h-2l-1-1v-2-1 1h-2v-1l-1-1 1-1v-1l-1-1v-3zm39-132l-1-1c-1-1-2-2-1-4v-1l2-1 3-1 1 2-1 1h1v-1h3v2h1l-1-2 1-3h2l2 2 1 1 1 2 2 2h2v1l2 2 2 1 1 2-1 1h1l2 1 1 2h1l1 1-3 4h-1l-1-1-2 1-1-1 1-2-1-2-1-4v-1l-1-1-2 2v1c1 2-1 4-1 6v1l-1 3v5h-1l-1 1-2-3v-1c-2 0-3-2-4-3v-2l1-1 1 1v-1h-1l-1-1-1-1v-2h3l2-2v-1h-2l-1-1v1l-1 2-1 1-3-2-1-2c-1-1-2-2-1-3zm-200 7c1 1 2 3 1 4l-1 2v1l-2 1-1 1h-3l-3-1h-1l-7-2h-4l-1-1 1-1-1-1v1l-3-1-3-2 1-5 2-2 1-2v-2l-1-1-3-2h-1v-6h3l3 2 1 1v1l1 1h2l1 2 1 2 1 1-1 1-2-1-1 1v1l1 1 3 3h2c0 2 1 1 2 1h9l2 1 1 1zm-63-16l1-1-1-1 1-1v-1l1-1v-1-2a171 171 0 0 1 5-2v1l-1 3v2 1l1 2h1l1-1h1v4l-4 4-2 1h-3l-2-1h-4l-2 1-4 1h-2l-1-1-2-2 1-1 5-1v-1h-3-1c-1 1-2 0-4-1l-1-1-1-2 2-2 3 1v-1l-1-1c-1 0-1 0 0 0l1-2 1-1 1-1 3-2h3l1 2 1 1 1 1v6h1l3 1zm758 506l1 1v1l-1 1v2l-4 5-2 1-1 3-1 1h-2l-4 4-1 2-1 1-2 3c-2 1-3 3-5 3h-3v-1l-4-2v-1l3-5 5-5h1l4-2 4-3 3-2 1-2v-1l4-5 1-1 1 1h1l1 2 1-1zM429 162h-1l-4-1-3-1h-2l-1-1 1-1h1v-1l-1-1-1-1h-2v-1l3-1 1-1v-1h-3-1l-1-1 2-3h5l1 2 1 2h-1 1l1-2v-1h1l1 1h1c0-1 1-2 2-1h1l4-1h4l1 2v2h2v1l-1 3-1 2-1 1-4 1v1l-6 2zM652 22l-1-3 1-4 1-3 1-1 2 1 4 3 1 1 1 2 1 3-3 1v1h1l2-2h7c1 1 3 2 3 4l1 2v2l2 1v1l-2 2h-1l-7-1-3-1-2-1-1-2v-1l-1-3v1 1l-2 3h-1l-2-2-1-1 2-1h1v-1l-2-1h-1l-1-1zm360 521l1 1-1 2v1l-3 3h-1l-2 2-2 4-3 4-3 1h-1l-1-1v-1l2-2 1-2-1-2-2-2 1-2 2-1 1-1 1-4 1-3v-2l-1-1v-3l-1-3v-2-3-1l1 1v1l3 3v8s0 1 0 0h1v-1h1v1l1 3 1 2h4zM774 32l-2-3v-1l1-3 1-1 3 2 3 1v-2-1l1-1 2 1 2 1 1 4h1v-1l-1-3v-1h1a997 997 0 0 1 6 2l1 2v1l-1 1v1l-1 1-1 1h-1l-3 2-1 1-1 2h-5l-2-2-2-1-1-1-1-2zM255 75l-1 1-1 2h-2v1l1 2 1 1-1 3-2 3v1l-2 1-2 1-2 1h-1l-1-3-2-4-1-2-1-1v-3c1-1 1-2 3-2h1l1 3h1l1-4-1-1v-1l2-2 1-1h3l1 1h-1 1l1 1h2l1 1v1zm598 319l-2 3 2 2h1l3-1 3-1h1l1 1v2h-1-2l-2 1-1 1 2 2v2l1 1 1 1 1 1-1 3-1 1v-1l-2-1h0l-2-1v-2c-1-1-2-2-1-3h-1l-1 7-1 1h-2l-1-1 1-3-1-2h-1v-3l1-1v-3l1-3 1-1v-1l1-2c2 0 2-2 3-2l3 1h5l3-1 1-1h1v1c-1 3-3 4-6 3h-8zM326 229h0zm-1-5v2h1l-1 1v2h1v1l1-1v2l-1 2-1 1-3-1v-1l1-2h-1l-2 2-2 1v-1l1-1-3-1h-7l-1-1v-1l1-1v-1l1-1 2-3 5-7 3-1h1l-2 3-1 3h-1 2l1 1h-1l1 1h5v2zM210 40v-1l1-2 3-2 2-1 8-4h3l3 1 1-1h1l1 1v1l-1 1-1 1h-1l-2 4-1 1h-1l-2 1-1 1h-1v-2l1-2v-1l-2 2-2 3h-1-1l-1 1h-2l-1-1-3-1zm301 12v-1l1-2h1v-1l1-1h1c1 1 1 2 3 2h1v-1-1h2v1h3l4 1 2 1-1 4-1 1c-1 2-1 2-3 2l-1 1h-3-2l-2-1-2-1v-1l1-1h0-2c-2 0-2 0-3-2zm-259-6l1 1 1 1v6l2-3h1l1 3h1v-3-2h4l2 1 1 2-2 4-1 2-1 2-2 2c-1 1-2 2-3 1h-3l-1-1 1-2 1-1 1-1v-1h-3c-1 0-2 0-2-2h-1v-4-1l1-2 1-2zm202 157l2-1h4v1l1 1v3h-1v3c1 1 0 3-1 4l-1 1-3 1-2 1h-4v-3l1-2v-2-2-2-1h3l1-2zm435 31l1-2v-1l1-1h1v-6l-1-1v-2-1h1l3 2 4 3h4l1 1 1 2v2l-3 1-1 2-1 2-3-1h-4-1v1l2 1v1l-2 2h-1v-2l-2-3zM263 32c-1 0-2 0-1-1v-1l1-1 2 1 1-1v-2l-1-1v-1l1-3h3l2 2v2c0 1 0 1 0 0h1c1-1 2 0 2 2v6c-2 1-2 2-2 4l-2 2h-2l-1-2c1-2 0-3-1-4l-1-1-2-1zm564 390h-3l-4-1-5-1h-2l-3-1h-1l-3-2v-1l1-2h4c2 0 3 0 4 2l3 1h2l1-1h3l2 1h4l1 1h-1l-1 1 1 1h2l4 1v1l-1 1h-1-3l-4-1zm27-88h1l1 3c1 2 0 3-1 5l-1 1v2h1v3h3l1 1 2 2 1 1 1 1-1 3h-1v-2-1l-2-2h-1v-1 1h-2l-1-1h-1l-1 1-1-1-1-2v-1 1l-2-2-1-4 1-2a65 65 0 0 1 1-5c0-1 1-2 2-1h2zm62 215l1 2-1 4v1l-2 4-1 1h-2l-2 1v1c-2-1-3-1-3-3v-3-1-6-1l1-1h1l2 2h3l3-1zM251 330c-2 1-4 2-6 1h-3l-1-1 1-1-1-1-3-2-1-1-4-1h-2l-2-1-2-1h-1l-5 2h-2l3-4 5-1h2l3 1 4 1 1 1 3 1 2 2c3 0 5 2 8 3l1 1v1zM679 31l-1-3c-1-1 0-2 1-3v-1l2 1 3 1 3 2 2 2 1 1v1l-1 2-2 2-4 3-1 1v-1l-2-2-1-4v-2zm189 331v1l1 2 1 2 1 3v3h-2v-1l-1 1 1 2-1 1v1l-2-1c-2 0-3-1-3-3v-2h-4l-1 1h-1v-1l1-2 2-2h3l1 1v-1l1-1 2-1v-2l1-1zm-616-25l-1-1v-1h3l1-1h1l-1-2v-1l1-1h1l2 1h5l1 1 4 2v2h-6-1l-2 2h-1l-2-1-3-1-2 1zm39-251v-1l1-2h1l4 1 3 3v5h-3l-1-1h-3c-1 1-2-1-2-2v-3zm0-1zm436 279l5 7c1 2-1 5-4 5l-2-1-1-6 1-4v-1-1l1 1zM275 41l-1-2 1-2 2-5h2l1 1 1 3v5l-1 1h-4l-1-1zm292-1l2-1 1-2 2-2 2 3v1l-2 3-1 1-1 2-1 1-1-1-2-1 1-2-1-1 1-1zm283 269l1 2v4l-1 4-1 2c0 1 0 1 0 0l-1-1c-2-1-2-2-2-4l1-3 1-2 1-2h1zM580 34c-1 0-2 0-1-1l1-1h0v-1l1-4 2-1v1l1 4v1h2v2l-2 3h-2l-3-1v-1h2l-1-1zM262 64l3-3h3l1 3v1l-1 3-2 1h-1l-3-3v-2zm3-3zm534-34l-2-2v-1h8l3 1v1l-2 2-2 1-5-2zm152 381c1 1 2 1 1 2l-1 2v1l-3 2h-1c-3 1-5 0-8-2l1-1h5v-1 1h2l2-2 2-2zM245 26l-1-1h1v-1h6l2 1v2c0 2-2 3-4 2l-2-1-2-2zm549 22v-2l1-3 1-1h2l2 1 3 2-1 2h-4l-3 1h-1zm26 282l-2 3c-1 2-2 2-4 2l-2-4h1c1-2 2-3 4-3h1l1 1 1 1zm-320-70l1-1 1-1c1-1 3 1 3 2v5l-1 1c-2 1-3 1-3-1l-1-5zM284 126l4-4h2l1 2-1 1c0 2-2 3-4 3l-2-2zm-178 53l2 1v1l-1 3v6h-1-1l-1-5v-1-1-2l1-1 1-1zm756 250h-1l1-3 1-1 2-1 6-1h1l-1 1-2 1-4 2-3 2zM28 97l-1-1 2-1 2 1 2 1 1 3v1h-2-1l-1-2-1-1-1-1zm252-50h-1l-5-1v-2l2-1c2 0 4 1 5 3v1h-1zm584 307c1-1 2 0 3 1v2c1 1 1 2-1 2v3l-1-1-1-1v-3h0v-1-2zM590 33l1-1h3v2 3l-3 1-1-1v-3-1zm-28 9l-1-2 3-3h2l3 2h-4v2h1l-1 1h-3zm4-1zm18-2l3-1h2v3l-2 1-1 1-1-1c-1 0-2-1-1-2v-1zm12-7c-2-1-3-2-3-4l1-1 1-1h1l2 3-2 3zm281 375l-1-1 1-2 6 1 1 1 1 1h-1-7zm114 65c-2 0-3-2-4-3l-3-4v-1h1l1 1 1 1 4 5 1 1h-1zm-153-48v-1l1-1h4l1-1 3 2c1 0 1 0 0 0l-6 1h-3zm20-1l-5 1-3-1v-1l2-1 4 1 3-1v1c1 0 1 0 0 0v1h-1zM593 125l2-1 3 1v1l-2 3-2-1-1-2v-1zm-330 28l-4 2h-1l-1-1v-1l2-1 1-1h2l1 1v1zm464-92v-1-1l2-1 1 1 1 2-1 2h-1l-1-1-1-1zM296 219c3 0 5 2 6 4h-4l-2-2v-1l-1-1h1zm280 63l-2-1v-1l2-1h3l-1 2-2 1zM221 43l-5 3h-1v-1c1-2 3-3 5-3h1v1zm282 214h-1l-1-3 1-1 1-1 1 1v3l-1 1zm339 109h1l4-6h2v1l-3 3-3 3h-1v-1zm19-6v5h-1l-1-1c-1 0-2-1-1-2l1-2 1-1 1 1zm-620-25l3 1v1l-1 1c-2 0-3 0-5-2h1l2-1zm619 24l-1 1v-1l-1 1h-1-1v-4l4 1v2zM30 125h-3v-2l3-1 1 1c1 1 0 2-1 2zm607-32l-1-1c0-1 0-2 2-2l2 2c-1 1-2 2-3 1zm-89 186h3l3 1v1h-3l-4-1v-1h1zm-271 56v2l-3 1-1-1-1-1h1l2-1h2zm574 16h2l1 1v2l-1 1-2-4zm-4 75v-1h1l4 1v2h-2l-3-2zM255 42l-1-1v-1l2-3h1v1l-1 4h-1zm705 371l3 2-1 2-1-1-2-2v-1h1zM267 155h1l1 1-1 1-1 2h-1v-1c-1-1 0-2 1-3zm656-24h1v2l-1 3h-1v-4l1-1zM294 235zm2 1l-1-1h-1l-1-2v-1h1l2 2c2 0 2 0 2 2h-2zm0 0zm612-14h-1v-1l1-2 2-1 1-1h1v1l-4 4zm-35 185l-1 1-3-1v-1h4v1zM435 90l2-1 1 2v1h-1-2v-1-1zM9 163l1 1v1l-4 1a103 103 0 0 1 3-3zM282 22v-1c-1-1 0-2 1-2h2v1l-2 2h-1zm2 29v-3h1l2 2-1 1h-2zM4 165v1l-3 2H0l3-3h1zM792 40l1 2v1h-1l-2-2 1-1h1zm-529-2l1-1 2 2-1 1-2-2zm-24-7l-1-1v-2l1-1 1 1v2l4-1 4 1 1 1-2 1-1 1-1 2-2 1h-2-1l-1-2v-2-1zm684 160h-1l-1-1 2-3h1l-1 4zm-664-2l-1-1v-1l2-1 1 1-2 2zM772 35a247 247 0 0 1-2-4l2 2 1 1-1 1zM254 72h-3l1-1h3v1h-1zm-9-13l-1-1 2-1h1v2h-2zm253 4l2 4c-2-1-3-2-3-4h1zm-225 87h2v2h-1l-1-1v-1zm-24 51l2 1v1h-1-1l-1-1 1-1zm612-30l1 2-1 1-1-1-1-1 2-1zm28 352h3v1h-1-1-1v-1zM659 89l1 2-1 1-2-1 1-2h1zm237 324c1 2 0 3-1 4v-1l1-3zm-12 21l-2-1v-1h3v1l-1 1zM60 143h2v2h-3l1-2zm-1 2v1l1 1-1 1-2 2-4 2h-1v-1l-1-1c0-2 1-3 4-3l1-1h1l2-1zm907 441v2l-1 1-1-1 2-2zM289 362v-1l1-1 1 2-1 1-1-1zM591 32h-1v-2h1l1 1-1 1zm53 322h1l1 1-2 1-1-1 1-1zM285 115h1v1l-2 1h-1-1l1-1 1-1h1zm710 331v1h-1v-2-1l1 2zM294 126h-2v-1l1-1 1 1v1zm685 300l-2-2v-2l1 1 1 1 1 1v1h-1zM581 39v2l-2-1-1-1h1l1-1 1 1zm0 2h0zm97 9v-1l1-1h1v1l-2 1zm19-17c-1 1-2 1-3-1h3v1zM326 495h0zm-2 2l2-2h1l-4 4v-1l1-1zm0 0v-1 1zm72-481l-1-1h2v2l-1-1zm471 386h-2v-1h4l-1 1h-1zm110 25l-2-1-1-1h1l2 1v1zm-73-201v0zm2-3l-2 3 1-2v-1h1zM574 45v-1h1l1 1v1h-2v-1zm17-3l1-1 1 1-1 1-1-1zm190 349l1 1v1h-1l-1-2h1zM579 43l-1-1 1-1h2l-2 2zM81 135h-1 1zm833 81v-1s-1 0 0 0l1-2-1 3zm-456-25zm2-2l-1 2h-1v-1l2-2v1zm353 215h2v1h-3l1-1zm160 18l-2-2h1v-1l2 2v1h-1zM231 106h1l-2 2h-1l1-1 1-1zm555 293l1 1-1 1-1-2h1zM296 168h1v1l-1 1-1-1 1-1zm683 261h2v1l-2-1zM261 48l-1 1-1-1 2-1v1zm-1 1h-1 1zm4 84l1 2h-1l-1-1v-1h1zm42 30v2h-1v-1-1h1zm646 243l2 3v1h-1l-1-4zM582 24v-1h1v1h-1zm10 0l-1-1h1v1zM232 38h2l-1 1h-1v-1zm572 354h-1l-2-1h2l1 1zm80 4h0zM656 71l-1-1h2l-1 1zM264 61c-2 1-2 1-2-1l3 1h-1zm-2-1zm601 302h1v1h-2l1-1zm0-2v1l-1 2h-1v-3h2zm-2 0zm1 3zm-571-16l1 1-1 1-1-1v-1h1zm0-5l-2 1 1-1h1zm-14-193l1 1h-1l-1-1h1zm-36 164l1 2h-1-1l1-2zm3-4v-2 2zm-4-2h1v1h-1v-1zm15 20h-1-1l1-1h1v1zm696 78v1s0-1 0 0v-1zm-3-1l3 1-3-1zm-74-7l1-1-1-2v-2c0-2 1-4 3-4 0 0 1 0 0 0v1l-1 1h2l1 1-1 1v1l-1 1h-1v3l-1 1-1-1zm-108-45v2h-1v-1-1h1zm119 68l1-1h1l-1 1h-1zM648 93h-1v-1-1l1 1v1zm-358 23l-1 1-1-1 1-1 1 1zm570 161l-1 1v-1-1h1v1zm-35 204v2h-1v-1-1h1zm-1 2zM574 44zm-1-1l1 1h-1l-1-1h1zm277 312l-1 1v-1h1zm20 66l-1-1h1s0-1 0 0h0v1zM442 34l-1-1 1-1v2zm169 397h-1l1-1v1zM440 59h1l-1 1v-1zm98 210h1v1h-2v-1h1zm1 1zm367 274s0 1 0 0h-1l1-1h1v1h-1zm-31-143h-1l1-1h1l-1 1zM263 549c0 1 0 1 0 0l-1-1h1l1 1h-1zm637-108l1-1 1 1-1 1-1-1zM390 21h-1v-1h1v1zm607 429h-1v-1l1 1zM601 111l1 1v1l-1-1s-1 0 0 0v-1zm214 271h-1v-1l1 1zm47-32l1-1v1h-1zm-571 1v-1 1zm674 66zm2 1l-2-1h2v1zM269 59l-1 1c0-1 0-2 1-1zm604 238l-1 1v-1h1zM266 106h2l-2 1v-1zm2 0zm57-48v1l-1-1h1zm576 343v-1l1 1h-1zM551 263h-1v-1h1v1zM665 51l-1 1v-1s0-1 0 0h1zm303 371l-1-1h1v1zM107 175v1l-1-1v-1l1 1zM781 46h1l1 1h-1l-1-1zm120 352s0 1 0 0h-1v-1l1 1zM304 66zm-1 1l1-1v1h-1zm633 335h-1v-1h1v1zm58 65h-1v-1l1 1zM353 121l1 1-1-1c0-1 0 0 0 0zm-88 430v1l-1 1v-1-1h1zm-1 2zM702 40h-1v-1h1v1zM392 16v-1l1 1h-1zm179 18v-1 1zm347 511v1l-1-1h1zm-653 28l1-1v2h-1v-1zm681-147h-2l1-1 1 1zm-2 0zM224 108h0zm211 196c-1 0-1 0 0 0v-1 1zm434 0h-1l1-1v1zm-620 12s0 1 0 0c0 0-1 0 0 0zm-7 2l-1-1h1v1zm10 3zm1 1h-1v-1h1v1zm97-210h-1v-1l1 1zM225 324l1 1h-1v-1zm70 28h1v1l-1-1zm-8-239h-1 1zm570 242h-1v-1l1 1zm-92 2c-1 0-1 0 0 0zm92 17v-1 1zm25 27h1l-1 1v-1zM439 72h-1l1-1v1zm427 350h-1v-1l1 1zm81 5s0 1 0 0h-1 1zm-1 0v-1 1zm-38 23v0zm1 0h-1 1zm-85 33v1-1zM444 32v-1 1zm142-1v1h-1v-1h1zM253 79l1 1h-1v-1zm395 9c-1 0-1 0 0 0v-1 1zM83 135l1 1h-1v-1zm427 2l1-1-1 1zm1-1zm55 16v-1l1 1h-1zm-273 4v1l-1-1h1zM682 53c0-1 0 0 0 0h-1 1zm239 134h-1l1-1v1zm-30 69v-1 1zm-405 8l-1 1v-1h1zm73 13l1-1v1h-1zm-352 21zm0 1v-1h1l-1 1zm55-230v-1 1zm-33 0h0zm629 103v0zM666 74zm0 2v1-1zm-528 1v0zm1 0h-1 1zm514 0l1 1h-1v-1zM488 263zM283 121h-1 1zm302-94s-1 0 0 0zm282 253v-1 1zM663 80h0zm-232 1v0zM264 34l1-1-1 1zm387 56zM442 35v-1 1zm0-1zm178 88zM235 96v-1 1zm47-56h-1v-1l1 1zm301 1h-1 1zm-1 0h-1 1zm288 239l1 1-1-1zM295 43l-1-1 1 1zm657 363h-1 1zm0 0zM516 45l-1-1h1v1zm-1-1zm265 1l1 1h-1v-1zm1 1zm-551 56zm0 1v-1 1zm238 83h-1 1zM290 346v-1 1zm248-75h1-1zm336 18h0zM352 109zm-1-1h1v1h-1v-1zm-23-50l-1 1v-1h1zm224 216v-1 1zm-303 45l1 1h-1v-1zm258-68zm0 1h-1l1-1v1zm23-190v0zm126 4c-1 0-1 0 0 0zm-2 1c0-1 0-1 0 0zm272 284zM460 199zm0 1v-1 1zM289 356zM12 162v0zm752 199l1-1v1h-1zM104 161v-1 1zm737 208zm-72 3v0zm85 4zm-3 2zm21 3v0zm-548 12zm2 1l-2-1 2 1zm478 2h-1 1zm-1 1v-1 1zm0 0zm142 6v0zm-155 2zm66 7h1-1zm82 1zm-86 2v-1 1zm9 7h1l-1 1v-1zm-2 8h0zm-242 5h-1 1zm381 15zm0 5v-1l1 1h-1zm2 4zm-4 10v1l-1-1h1zm-78 78v1l-1-1h1zM464 206v0zm145-80h-1 1zm-1 0zm-85-1zM301 592v-1 1zm46-488zm-69 10zm632 1zm-380 6zm0 0c1 0 1 0 0 0zm22 140zm-33 17h1-1zm-267 43zm33 16v-1 1zm197-70zM409 12zm482 188zm1 1l-1-1 1 1zM31 160v-1 1zm0 0s-1 0 0 0zm861 41zm1 0h-1 1zm-25 183h1-1zm-92 2zm100 11zm1 0h-1 1zM43 152zM348 32zm600 372zm-92-53zm0 0zm37-149v-1 1zm72 215v-1 1zM586 36v1-1zm380 384h1v1l-1-1zm-105 9l-1 1v-1h1zm-234 7zM263 49h-1 1zm267 0v0zm0 1zm154 1zM80 136zm0 0l1-1v1h1l-2 2h-1v-1l1-1zm679-79h-1 1zM115 193zm205-60v0zm413-68zm-1 0h0zm-428 1zm-47 1zm405 13h-1 1zM278 591v-1 1zm0 0zm247-397v-1l1-2 1-1v4h-2zm4-15l-1-1v-1h1v2zm-12 24h-1v-1h1v1zm20-18h-1v-1l1 1s0 1 0 0zm-10 5zm8-1h1-1z" fill="#ebf0fb" fill-rule="evenodd"/></svg>

