<svg xmlns="http://www.w3.org/2000/svg" class="icon" version="1" viewBox="0 0 1024 1024"><defs/><path fill="#FCEE21" d="M899 147h16v16h-16z"/><path fill="#FFF" d="M899 148h15v14h-15z"/><path d="M914 162h-15v-14h15zm-15 0h15v-14h-15z"/><path fill="red" d="M915 147l-16 16m0 0l16-16-16 16z"/><path fill="#F6F6C9" d="M908 146l8 8-11 10-7-7z"/><path fill="#3D9FF9" d="M512 980A468 468 0 0 1 330 81a468 468 0 0 1 364 862 465 465 0 0 1-182 36zm0-910a443 443 0 0 0-172 850 443 443 0 0 0 344-816 440 440 0 0 0-172-34zm166 720a113 113 0 0 1-80-33L495 654a216 216 0 0 1-124-8 211 211 0 0 1-130-255 13 13 0 0 1 21-6l90 90a9 9 0 0 0 13 0l111-111a9 9 0 0 0 0-13l-89-89a13 13 0 0 1 6-21 217 217 0 0 1 108-1 211 211 0 0 1 152 153 216 216 0 0 1 1 101l104 103a113 113 0 0 1 0 160 113 113 0 0 1-80 33zM510 634l106 105a88 88 0 1 0 124-124L634 509a15 15 0 0 1-2-1 13 13 0 0 1-4-13 191 191 0 0 0 1-96 186 186 0 0 0-134-134 191 191 0 0 0-74-4l73 72a34 34 0 0 1 0 49L382 493a34 34 0 0 1-48 0l-74-74a190 190 0 0 0 119 203 191 191 0 0 0 117 6 13 13 0 0 1 12 3 15 15 0 0 1 2 3zm239 114z"/><path fill="#C5E3FF" d="M749 748a100 100 0 0 1-142 0L500 642l-1-2a201 201 0 0 1-246-246l90 90a22 22 0 0 0 31 0l111-111a22 22 0 0 0 0-31l-89-89a200 200 0 0 1 244 245l2 2 107 106a100 100 0 0 1 0 142z"/><path fill="#3D9FF9" d="M678 790a113 113 0 0 1-80-33L495 654a216 216 0 0 1-124-8 211 211 0 0 1-130-255 13 13 0 0 1 21-6l90 90a9 9 0 0 0 13 0l111-111a9 9 0 0 0 0-13l-89-89a13 13 0 0 1 6-21 217 217 0 0 1 108-1 211 211 0 0 1 152 153 216 216 0 0 1 1 101l104 103a113 113 0 0 1 0 160 113 113 0 0 1-80 33zM510 634l106 105a88 88 0 0 0 124 0 88 88 0 0 0 0-124L634 509a15 15 0 0 1-2-1 13 13 0 0 1-4-13 191 191 0 0 0 1-96 186 186 0 0 0-134-134 191 191 0 0 0-74-4l73 72a34 34 0 0 1 0 49L382 493a34 34 0 0 1-48 0l-74-74a190 190 0 0 0 119 203 191 191 0 0 0 117 6 13 13 0 0 1 12 3 15 15 0 0 1 2 3zm239 114z"/><path fill="#C5E3FF" d="M749 748a100 100 0 0 1-142 0L500 642l-1-2a201 201 0 0 1-246-246l90 90a22 22 0 0 0 31 0l111-111a22 22 0 0 0 0-31l-89-89a200 200 0 0 1 244 245l2 2 107 106a100 100 0 0 1 0 142z"/><path fill="#3D9FF9" d="M678 790a113 113 0 0 1-80-33L495 654a216 216 0 0 1-124-8 211 211 0 0 1-130-255 13 13 0 0 1 21-6l90 90a9 9 0 0 0 13 0l111-111a9 9 0 0 0 0-13l-89-89a13 13 0 0 1 6-21 217 217 0 0 1 108-1 211 211 0 0 1 152 153 216 216 0 0 1 1 101l104 103a113 113 0 0 1 0 160 113 113 0 0 1-80 33zM510 634l106 105a88 88 0 0 0 124 0 88 88 0 0 0 0-124L634 509a15 15 0 0 1-2-1 13 13 0 0 1-4-13 191 191 0 0 0 1-96 186 186 0 0 0-134-134 191 191 0 0 0-74-4l73 72a34 34 0 0 1 0 49L382 493a34 34 0 0 1-48 0l-74-74a190 190 0 0 0 119 203 191 191 0 0 0 117 6 13 13 0 0 1 12 3 15 15 0 0 1 2 3zm239 114z"/></svg>