<svg xmlns="http://www.w3.org/2000/svg" class="icon" version="1" viewBox="0 0 1024 1024"><defs/><path fill="#3D9FF9" d="M139 874c-41-14-68-52-68-93V189c0-55 46-99 102-99h458c43 0 82 27 96 68l-24 8a77 77 0 0 0-72-51H173c-42 0-77 33-77 74v592c0 31 21 59 51 70z"/><path fill="#3D9FF9" d="M575 278H137a13 13 0 0 1 0-25h438a13 13 0 0 1 0 25zM422 712H137a13 13 0 0 1 0-25h285a13 13 0 0 1 0 25zm21-217H137a13 13 0 0 1 0-25h306a13 13 0 0 1 0 25z"/><path fill="#C5E3FF" d="M774 244v591c0 48-40 87-89 87H227c-39 0-72-25-84-60a90 90 0 0 0 30 6h458c49 0 89-40 89-87V189a84 84 0 0 0-5-27c34 12 59 44 59 82z"/><path fill="#3D9FF9" d="M685 934H227c-43 0-82-27-96-68l-9-24 25 9a78 78 0 0 0 26 4h458c42 0 76-33 76-74V189a72 72 0 0 0-4-23l-8-25 24 9c40 14 68 52 68 94v591c0 55-46 99-102 99zm-519-54a77 77 0 0 0 61 29h458c42 0 77-33 77-74V244a74 74 0 0 0-30-59v596c0 54-45 99-102 99H166z"/><path fill="#C5E3FF" d="M736 601l-162 78-21-178 178-323 20-37c14-24 43-34 65-22l102 56c22 12 29 42 16 66z"/><path fill="#3D9FF9" d="M564 698l-23-199 200-364a65 65 0 0 1 35-30c16-6 32-4 46 3l102 56c28 16 37 53 21 83L745 611zm2-194l19 156 142-68 196-357c10-18 5-40-11-49l-102-56c-8-4-17-5-26-2a40 40 0 0 0-22 19z"/><path fill="#C5E3FF" d="M913 278L731 178"/><path fill="#3D9FF9" d="M725 189l12-22 182 101-12 21z"/></svg>